<svg width="254" height="91" viewBox="0 0 254 91" fill="none" xmlns="http://www.w3.org/2000/svg">
<path d="M55.52 60V55.8L72.84 34.92L73.64 37.28H55.84V32H79.4V36.2L62.12 57.08L61.32 54.72H80V60H55.52ZM94.1616 60.32C91.7082 60.32 89.5482 59.84 87.6816 58.88C85.8416 57.92 84.4149 56.6133 83.4016 54.96C82.3882 53.28 81.8816 51.3733 81.8816 49.24C81.8816 47.08 82.3749 45.1733 83.3616 43.52C84.3749 41.84 85.7482 40.5333 87.4816 39.6C89.2149 38.64 91.1749 38.16 93.3616 38.16C95.4682 38.16 97.3616 38.6133 99.0416 39.52C100.748 40.4 102.095 41.68 103.082 43.36C104.068 45.0133 104.562 47 104.562 49.32C104.562 49.56 104.548 49.84 104.522 50.16C104.495 50.4533 104.468 50.7333 104.442 51H86.9616V47.36H101.162L98.7616 48.44C98.7616 47.32 98.5349 46.3467 98.0816 45.52C97.6282 44.6933 97.0016 44.0533 96.2016 43.6C95.4016 43.12 94.4682 42.88 93.4016 42.88C92.3349 42.88 91.3882 43.12 90.5616 43.6C89.7616 44.0533 89.1349 44.7067 88.6816 45.56C88.2282 46.3867 88.0016 47.3733 88.0016 48.52V49.48C88.0016 50.6533 88.2549 51.6933 88.7616 52.6C89.2949 53.48 90.0282 54.16 90.9616 54.64C91.9216 55.0933 93.0416 55.32 94.3216 55.32C95.4682 55.32 96.4682 55.1467 97.3216 54.8C98.2016 54.4533 99.0016 53.9333 99.7216 53.24L103.042 56.84C102.055 57.96 100.815 58.8267 99.3216 59.44C97.8282 60.0267 96.1082 60.32 94.1616 60.32ZM108.716 60V38.48H114.676V44.56L113.836 42.8C114.476 41.28 115.503 40.1333 116.916 39.36C118.329 38.56 120.049 38.16 122.076 38.16V43.92C121.809 43.8933 121.569 43.88 121.356 43.88C121.143 43.8533 120.916 43.84 120.676 43.84C118.969 43.84 117.583 44.3333 116.516 45.32C115.476 46.28 114.956 47.7867 114.956 49.84V60H108.716ZM135.87 60.32C133.577 60.32 131.537 59.84 129.75 58.88C127.99 57.92 126.59 56.6133 125.55 54.96C124.537 53.28 124.03 51.3733 124.03 49.24C124.03 47.08 124.537 45.1733 125.55 43.52C126.59 41.84 127.99 40.5333 129.75 39.6C131.537 38.64 133.577 38.16 135.87 38.16C138.137 38.16 140.163 38.64 141.95 39.6C143.737 40.5333 145.137 41.8267 146.15 43.48C147.163 45.1333 147.67 47.0533 147.67 49.24C147.67 51.3733 147.163 53.28 146.15 54.96C145.137 56.6133 143.737 57.92 141.95 58.88C140.163 59.84 138.137 60.32 135.87 60.32ZM135.87 55.2C136.91 55.2 137.843 54.96 138.67 54.48C139.497 54 140.15 53.32 140.63 52.44C141.11 51.5333 141.35 50.4667 141.35 49.24C141.35 47.9867 141.11 46.92 140.63 46.04C140.15 45.16 139.497 44.48 138.67 44C137.843 43.52 136.91 43.28 135.87 43.28C134.83 43.28 133.897 43.52 133.07 44C132.243 44.48 131.577 45.16 131.07 46.04C130.59 46.92 130.35 47.9867 130.35 49.24C130.35 50.4667 130.59 51.5333 131.07 52.44C131.577 53.32 132.243 54 133.07 54.48C133.897 54.96 134.83 55.2 135.87 55.2Z" fill="black"/>
<path d="M165.76 60.56C163.547 60.56 161.493 60.2133 159.6 59.52C157.733 58.8 156.107 57.7867 154.72 56.48C153.36 55.1733 152.293 53.64 151.52 51.88C150.747 50.0933 150.36 48.1333 150.36 46C150.36 43.8667 150.747 41.92 151.52 40.16C152.293 38.3733 153.36 36.8267 154.72 35.52C156.107 34.2133 157.733 33.2133 159.6 32.52C161.493 31.8 163.547 31.44 165.76 31.44C168.347 31.44 170.653 31.8933 172.68 32.8C174.733 33.7067 176.44 35.0133 177.8 36.72L172.76 41.28C171.853 40.2133 170.853 39.4 169.76 38.84C168.693 38.28 167.493 38 166.16 38C165.013 38 163.96 38.1867 163 38.56C162.04 38.9333 161.213 39.48 160.52 40.2C159.853 40.8933 159.32 41.7333 158.92 42.72C158.547 43.7067 158.36 44.8 158.36 46C158.36 47.2 158.547 48.2933 158.92 49.28C159.32 50.2667 159.853 51.12 160.52 51.84C161.213 52.5333 162.04 53.0667 163 53.44C163.96 53.8133 165.013 54 166.16 54C167.493 54 168.693 53.72 169.76 53.16C170.853 52.6 171.853 51.7867 172.76 50.72L177.8 55.28C176.44 56.96 174.733 58.2667 172.68 59.2C170.653 60.1067 168.347 60.56 165.76 60.56ZM194.133 60V55.96L193.613 54.96V47.52C193.613 46.32 193.24 45.4 192.493 44.76C191.773 44.0933 190.613 43.76 189.013 43.76C187.973 43.76 186.92 43.9333 185.853 44.28C184.786 44.6 183.88 45.0533 183.133 45.64L180.573 40.48C181.8 39.68 183.266 39.0667 184.973 38.64C186.706 38.1867 188.426 37.96 190.133 37.96C193.653 37.96 196.373 38.7733 198.293 40.4C200.24 42 201.213 44.52 201.213 47.96V60H194.133ZM187.733 60.36C186 60.36 184.533 60.0667 183.333 59.48C182.133 58.8933 181.213 58.0933 180.573 57.08C179.96 56.0667 179.653 54.9333 179.653 53.68C179.653 52.3467 179.986 51.2 180.653 50.24C181.346 49.2533 182.4 48.5067 183.813 48C185.226 47.4667 187.053 47.2 189.293 47.2H194.413V51.16H190.333C189.106 51.16 188.24 51.36 187.733 51.76C187.253 52.16 187.013 52.6933 187.013 53.36C187.013 54.0267 187.266 54.56 187.773 54.96C188.28 55.36 188.973 55.56 189.853 55.56C190.68 55.56 191.426 55.36 192.093 54.96C192.786 54.5333 193.293 53.8933 193.613 53.04L194.653 55.84C194.253 57.3333 193.466 58.4667 192.293 59.24C191.146 59.9867 189.626 60.36 187.733 60.36ZM213.89 60.36C212.05 60.36 210.25 60.1467 208.49 59.72C206.757 59.2933 205.357 58.76 204.29 58.12L206.57 52.92C207.584 53.5333 208.77 54.0267 210.13 54.4C211.49 54.7467 212.824 54.92 214.13 54.92C215.41 54.92 216.29 54.7867 216.77 54.52C217.277 54.2533 217.53 53.8933 217.53 53.44C217.53 53.0133 217.29 52.7067 216.81 52.52C216.357 52.3067 215.744 52.1467 214.97 52.04C214.224 51.9333 213.397 51.8133 212.49 51.68C211.584 51.5467 210.664 51.3733 209.73 51.16C208.824 50.92 207.984 50.5733 207.21 50.12C206.464 49.64 205.864 49 205.41 48.2C204.957 47.4 204.73 46.3867 204.73 45.16C204.73 43.7733 205.13 42.5467 205.93 41.48C206.757 40.3867 207.957 39.5333 209.53 38.92C211.104 38.28 213.024 37.96 215.29 37.96C216.81 37.96 218.344 38.12 219.89 38.44C221.464 38.7333 222.784 39.1867 223.85 39.8L221.57 44.96C220.504 44.3467 219.437 43.9333 218.37 43.72C217.304 43.48 216.29 43.36 215.33 43.36C214.05 43.36 213.144 43.5067 212.61 43.8C212.104 44.0933 211.85 44.4533 211.85 44.88C211.85 45.3067 212.077 45.64 212.53 45.88C212.984 46.0933 213.584 46.2667 214.33 46.4C215.104 46.5067 215.944 46.6267 216.85 46.76C217.757 46.8667 218.664 47.04 219.57 47.28C220.504 47.52 221.344 47.88 222.09 48.36C222.864 48.8133 223.477 49.44 223.93 50.24C224.384 51.0133 224.61 52.0133 224.61 53.24C224.61 54.5733 224.197 55.7733 223.37 56.84C222.57 57.9067 221.37 58.76 219.77 59.4C218.197 60.04 216.237 60.36 213.89 60.36ZM242.005 37.96C243.685 37.96 245.205 38.3067 246.565 39C247.925 39.6667 248.992 40.7067 249.765 42.12C250.565 43.5333 250.965 45.36 250.965 47.6V60H243.365V48.84C243.365 47.2933 243.045 46.1733 242.405 45.48C241.792 44.76 240.925 44.4 239.805 44.4C239.005 44.4 238.272 44.5867 237.605 44.96C236.939 45.3067 236.419 45.8533 236.045 46.6C235.672 47.3467 235.485 48.32 235.485 49.52V60H227.885V30.32H235.485V44.48L233.725 42.68C234.552 41.1067 235.685 39.9333 237.125 39.16C238.565 38.36 240.192 37.96 242.005 37.96Z" fill="#00FF29"/>
<path d="M5.29457 24.4147L40.2171 45.2919V81.0814L5.29457 58.5473V24.4147Z" fill="#139108"/>
<path d="M40.2171 7.94186L5.29457 24.4494V52.7481L40.2171 34.9304V7.94186Z" fill="#00EF26"/>
<path d="M2 22.438L40.2171 4.64729L43.5116 3V35.9457L37.9109 39.8992L43.5116 43.5233V88L2 60.655V58.6783V22.438Z" stroke="#00FF29" stroke-width="3"/>
</svg>
